<svg width="20" height="20" viewBox="0 0 20 20" fill="none" xmlns="http://www.w3.org/2000/svg">
<path d="M6.50008 1.66666H13.5001C16.1667 1.66666 18.3334 3.83332 18.3334 6.49999V13.5C18.3334 16.1694 16.1695 18.3333 13.5001 18.3333H6.50008C3.83341 18.3333 1.66675 16.1667 1.66675 13.5V6.49999C1.66675 3.83061 3.83071 1.66666 6.50008 1.66666V1.66666ZM6.33341 3.33332C4.67656 3.33332 3.33341 4.67647 3.33341 6.33332V13.6667C3.33341 15.325 4.67508 16.6667 6.33341 16.6667H13.6667C15.3236 16.6667 16.6667 15.3235 16.6667 13.6667V6.33332C16.6667 4.67499 15.3251 3.33332 13.6667 3.33332H6.33341ZM14.3751 4.58332C14.9504 4.58332 15.4167 5.04969 15.4167 5.62499C15.4167 6.20029 14.9504 6.66666 14.3751 6.66666C13.7998 6.66666 13.3334 6.20029 13.3334 5.62499C13.3334 5.04969 13.7998 4.58332 14.3751 4.58332ZM10.0001 5.83332C12.3013 5.83332 14.1667 7.6988 14.1667 9.99999C14.1667 12.3012 12.3013 14.1667 10.0001 14.1667C7.6989 14.1667 5.83341 12.3012 5.83341 9.99999C5.83341 7.6988 7.6989 5.83332 10.0001 5.83332ZM10.0001 7.49999C8.61937 7.49999 7.50008 8.61928 7.50008 9.99999C7.50008 11.3807 8.61937 12.5 10.0001 12.5C11.3808 12.5 12.5001 11.3807 12.5001 9.99999C12.5001 8.61928 11.3808 7.49999 10.0001 7.49999Z" fill="#4AFFD8"/>
</svg>
