<svg width="182" height="56" viewBox="0 0 182 56" fill="none" xmlns="http://www.w3.org/2000/svg">
<path d="M15.4061 14H25.0928L43.1546 41.6656H33.477L15.4061 14Z" fill="#4A64FF"/>
<path d="M21.914 36.8171C21.9144 37.958 21.5747 39.0733 20.9379 40.0221C20.3011 40.9709 19.3957 41.7104 18.3363 42.1472C17.2769 42.584 16.1111 42.6984 14.9864 42.4759C13.8616 42.2535 12.8284 41.7042 12.0175 40.8975C11.2067 40.0907 10.6545 39.0629 10.4309 37.944C10.2073 36.825 10.3223 35.6652 10.7613 34.6113C11.2004 33.5574 11.9437 32.6567 12.8974 32.0231C13.8511 31.3896 14.9723 31.0516 16.119 31.0521C16.88 31.0521 17.6336 31.2012 18.3367 31.4909C19.0397 31.7806 19.6786 32.2053 20.2167 32.7406C20.7548 33.276 21.1816 33.9115 21.4729 34.6109C21.7641 35.3104 21.914 36.0601 21.914 36.8171Z" fill="#4AFFD8"/>
<path d="M60.128 18.4C62.0133 18.4 63.6 19.0347 64.888 20.304C66.176 21.5733 66.82 23.132 66.82 24.98C66.82 26.828 66.176 28.3867 64.888 29.656C63.6 30.9253 62.0133 31.56 60.128 31.56H56.684V38H52.82V18.4H60.128ZM60.128 27.948C60.9493 27.948 61.6307 27.668 62.172 27.108C62.7133 26.5293 62.984 25.82 62.984 24.98C62.984 24.1213 62.7133 23.412 62.172 22.852C61.6307 22.292 60.9493 22.012 60.128 22.012H56.684V27.948H60.128ZM68.6356 18.4H72.4996V38H68.6356V18.4ZM90.3518 38H85.9558L82.1478 31.616L78.3398 38H73.9718L79.9638 27.948L74.2798 18.4H78.6478L82.1478 24.28L85.6478 18.4H90.0158L84.3318 27.92L90.3518 38ZM104.418 38L103.242 34.472H95.4297L94.2537 38H90.0817L96.9417 18.4H101.73L108.618 38H104.418ZM96.6617 30.86H102.038L99.3497 22.852L96.6617 30.86ZM118.406 38.392C115.457 38.392 113.021 37.412 111.098 35.452C109.175 33.492 108.214 31.0747 108.214 28.2C108.214 25.3067 109.175 22.8893 111.098 20.948C113.021 18.988 115.457 18.008 118.406 18.008C120.179 18.008 121.813 18.428 123.306 19.268C124.818 20.0893 125.994 21.2093 126.834 22.628L123.502 24.56C123.017 23.6827 122.326 23.0013 121.43 22.516C120.534 22.012 119.526 21.76 118.406 21.76C116.502 21.76 114.962 22.3573 113.786 23.552C112.629 24.7467 112.05 26.296 112.05 28.2C112.05 30.0853 112.629 31.6253 113.786 32.82C114.962 34.0147 116.502 34.612 118.406 34.612C119.526 34.612 120.534 34.3693 121.43 33.884C122.345 33.38 123.035 32.6987 123.502 31.84L126.834 33.772C125.994 35.1907 124.827 36.32 123.334 37.16C121.841 37.9813 120.198 38.392 118.406 38.392ZM144.808 35.452C142.829 37.412 140.421 38.392 137.584 38.392C134.747 38.392 132.339 37.412 130.36 35.452C128.4 33.4733 127.42 31.056 127.42 28.2C127.42 25.344 128.4 22.936 130.36 20.976C132.339 18.9973 134.747 18.008 137.584 18.008C140.421 18.008 142.829 18.9973 144.808 20.976C146.787 22.936 147.776 25.344 147.776 28.2C147.776 31.056 146.787 33.4733 144.808 35.452ZM133.076 32.82C134.289 34.0147 135.792 34.612 137.584 34.612C139.376 34.612 140.879 34.0147 142.092 32.82C143.305 31.6067 143.912 30.0667 143.912 28.2C143.912 26.3333 143.305 24.7933 142.092 23.58C140.879 22.3667 139.376 21.76 137.584 21.76C135.792 21.76 134.289 22.3667 133.076 23.58C131.863 24.7933 131.256 26.3333 131.256 28.2C131.256 30.0667 131.863 31.6067 133.076 32.82ZM157.576 18.4C160.264 18.4 162.504 19.3427 164.296 21.228C166.107 23.1133 167.012 25.4373 167.012 28.2C167.012 30.9627 166.107 33.2867 164.296 35.172C162.504 37.0573 160.264 38 157.576 38H149.792V18.4H157.576ZM157.576 34.304C159.275 34.304 160.656 33.744 161.72 32.624C162.784 31.4853 163.316 30.0107 163.316 28.2C163.316 26.3893 162.784 24.924 161.72 23.804C160.656 22.6653 159.275 22.096 157.576 22.096H153.656V34.304H157.576Z" fill="#121E49"/>
</svg>
