<?xml version="1.0" standalone="no"?>
<!DOCTYPE svg PUBLIC "-//W3C//DTD SVG 20010904//EN"
 "http://www.w3.org/TR/2001/REC-SVG-20010904/DTD/svg10.dtd">
<svg version="1.0" xmlns="http://www.w3.org/2000/svg"
 width="393.000000pt" height="393.000000pt" viewBox="0 0 393.000000 393.000000"
 preserveAspectRatio="xMidYMid meet">
<metadata>
Created by potrace 1.14, written by Peter Selinger 2001-2017
</metadata>
<g transform="translate(0.000000,393.000000) scale(0.100000,-0.100000)"
fill="#000000" stroke="none">
<path d="M1798 3925 c-2 -2 -26 -6 -53 -8 -124 -13 -310 -56 -440 -103 -294
-106 -578 -303 -800 -555 -216 -245 -393 -626 -440 -944 -3 -19 -7 -52 -11
-72 -13 -95 -20 -318 -9 -344 3 -10 2 -20 -4 -24 -7 -4 -8 -13 -2 -23 4 -9 11
-46 15 -82 9 -88 13 -113 36 -206 11 -43 22 -88 25 -99 7 -29 36 -115 51 -150
7 -16 20 -50 30 -75 10 -25 24 -55 32 -67 7 -12 10 -28 6 -34 -4 -7 -3 -9 3
-6 5 3 21 -17 34 -46 13 -29 27 -53 32 -55 4 -2 7 -10 7 -18 0 -8 4 -14 9 -14
5 0 11 -8 15 -17 8 -25 29 -57 43 -66 7 -4 13 -14 13 -21 0 -8 7 -19 15 -26 9
-7 14 -19 11 -26 -3 -8 0 -11 10 -7 13 5 19 -8 15 -30 -1 -5 3 -6 9 -2 5 3 13
-1 17 -11 3 -9 21 -32 40 -51 30 -29 33 -36 22 -51 -11 -14 -11 -15 1 -4 17
14 34 16 25 2 -3 -6 -1 -10 5 -10 6 0 8 -5 5 -10 -4 -6 -3 -10 2 -9 23 4 35
-2 29 -17 -3 -8 -2 -13 3 -10 12 8 43 -29 34 -39 -5 -4 -3 -5 4 -2 14 8 46
-21 38 -34 -4 -5 1 -6 9 -3 9 3 20 -3 28 -15 7 -12 18 -21 24 -21 17 0 35 -25
26 -36 -4 -5 -3 -6 2 -2 5 4 29 -7 52 -24 37 -27 42 -34 31 -47 -10 -14 -10
-14 4 -3 14 11 26 7 78 -26 34 -21 58 -42 54 -46 -4 -4 0 -4 8 -1 9 3 22 -2
30 -11 12 -16 12 -17 -1 -9 -8 4 -12 4 -7 0 4 -5 20 -9 35 -10 15 0 27 -5 27
-12 0 -6 4 -15 9 -20 5 -5 6 -2 1 6 -4 7 -4 12 1 9 47 -21 70 -34 75 -41 3 -5
9 -8 13 -7 8 2 52 -14 106 -38 19 -9 44 -17 55 -19 26 -5 135 -42 159 -55 13
-7 16 -6 11 2 -6 9 -2 9 12 1 11 -5 40 -13 64 -16 47 -6 81 -12 89 -15 3 -1
13 -1 24 0 12 1 16 -2 11 -12 -6 -10 -5 -10 4 -2 16 15 53 6 44 -10 -5 -8 -3
-8 8 0 17 14 97 8 118 -9 12 -9 13 -9 7 1 -5 8 0 12 14 12 12 0 19 -4 15 -9
-3 -5 -1 -13 5 -16 6 -4 9 -1 8 7 -2 10 16 13 80 13 45 0 82 3 82 8 0 4 5 7
11 7 5 0 7 -6 3 -12 -6 -10 -4 -10 7 0 7 6 17 12 22 12 4 0 5 -6 1 -12 -6 -10
-5 -10 7 -1 8 6 27 10 42 9 15 -2 27 1 27 5 0 5 3 8 8 7 4 -1 30 1 57 5 28 4
52 7 55 7 3 0 26 6 52 14 27 8 45 10 42 4 -4 -6 5 -2 19 7 28 18 36 19 55 3 9
-8 11 -7 6 6 -4 11 -1 16 14 16 11 0 22 -3 25 -7 2 -5 2 -2 0 6 -2 9 4 12 21
9 15 -3 24 -1 23 6 -1 6 10 11 25 11 14 -1 25 2 22 6 -6 11 24 19 43 12 12 -5
14 -3 8 7 -6 10 -3 12 13 8 12 -4 25 -1 29 4 4 7 1 8 -8 3 -11 -6 -11 -5 -3 5
7 6 24 13 38 13 14 1 26 6 26 10 0 12 69 39 81 32 5 -4 8 -3 7 2 -2 4 0 8 3 8
3 0 14 8 24 18 9 10 24 16 31 13 7 -3 16 0 20 6 5 7 2 8 -6 3 -9 -5 -11 -4 -6
3 4 7 14 12 22 12 8 0 14 5 14 11 0 5 5 7 10 4 6 -3 10 -2 10 4 0 6 13 17 30
26 16 9 30 13 30 10 0 -2 13 9 29 26 18 19 35 28 42 23 8 -4 9 -3 5 5 -4 6 0
14 11 18 10 4 29 17 42 29 14 13 29 20 34 17 6 -3 7 -2 4 4 -3 5 3 17 14 26
10 9 19 14 19 11 0 -4 13 10 30 31 17 21 30 35 30 31 0 -3 19 15 43 41 23 25
60 65 81 87 22 23 40 43 40 46 1 3 5 4 9 2 5 -1 6 2 3 7 -4 5 5 22 19 37 14
15 25 31 25 36 0 5 5 6 12 2 6 -4 8 -3 5 3 -8 12 27 65 37 56 4 -5 7 -3 6 2
-5 21 0 36 10 30 6 -4 9 -3 8 2 -5 18 14 53 25 47 7 -4 9 -4 5 1 -10 11 31 87
42 80 5 -3 7 1 4 9 -3 8 5 37 19 63 38 75 53 110 56 134 0 5 4 8 9 6 4 -3 8 8
8 25 1 17 5 33 10 37 5 3 10 15 12 26 2 11 6 27 9 35 7 17 6 14 28 100 8 36
18 81 20 100 3 19 7 44 9 55 15 66 20 139 21 295 0 150 -10 313 -20 330 -2 3
-6 26 -10 50 -18 123 -96 352 -167 495 -184 366 -495 677 -867 864 -130 66
-361 145 -486 165 -16 3 -61 10 -100 17 -63 11 -428 22 -437 14z"/>
<path d="M1039 283 c-13 -16 -12 -17 4 -4 16 13 21 21 13 21 -2 0 -10 -8 -17
-17z"/>
<path d="M1596 88 c3 -5 10 -6 15 -3 13 9 11 12 -6 12 -8 0 -12 -4 -9 -9z"/>
<path d="M2330 90 c0 -5 5 -10 11 -10 5 0 7 5 4 10 -3 6 -8 10 -11 10 -2 0 -4
-4 -4 -10z"/>
<path d="M1995 59 c-4 -6 -5 -12 -2 -15 2 -3 7 2 10 11 7 17 1 20 -8 4z"/>
</g>
</svg>
