<svg width="152" height="152" viewBox="0 0 152 152" fill="none" xmlns="http://www.w3.org/2000/svg">
<g clip-path="url(#clip0_8_22)">
<path d="M151.653 71.4085C150.45 69.0019 150.925 69.6669 115.712 69.6669C103.045 50.5085 103.615 50.6669 101.335 50.6669H77.5851L69.0351 39.2669C67.6734 37.4619 66.6284 38.0002 53.8351 38.0002C53.2953 38.0018 52.7649 38.1414 52.2942 38.4057C51.8235 38.67 51.4282 39.0503 51.1458 39.5103C50.8634 39.9704 50.7034 40.495 50.6808 41.0343C50.6582 41.5737 50.7738 42.1098 51.0168 42.5919L55.0384 50.6669H44.3351C41.7384 50.6669 41.8017 51.8069 35.1834 65.0752C34.9405 65.5573 34.8248 66.0934 34.8474 66.6327C34.87 67.1721 35.0301 67.6967 35.3125 68.1567C35.5949 68.6168 35.9902 68.997 36.4608 69.2613C36.9315 69.5256 37.4619 69.6652 38.0017 69.6669H49.1801C50.9431 69.6693 52.6707 70.1623 54.1695 71.0906C55.6683 72.019 56.8793 73.3461 57.6667 74.9235C58.4267 76.4435 62.7334 76.0002 28.5017 76.0002C25.8734 76.0002 25.8417 77.3935 20.2051 88.6669C13.8717 88.6669 8.01341 87.7169 4.91008 93.9235C0.00174475 103.645 -0.726589 104.215 0.476745 106.179C1.68008 108.142 1.83841 107.667 20.0784 107.667C24.6384 107.667 26.7917 110.454 29.4201 113.082C30.8134 114.444 24.1951 114 120.335 114C122.615 114 120.873 115.394 151.368 74.7335C151.721 74.2608 151.934 73.6991 151.984 73.1116C152.035 72.5242 151.92 71.9343 151.653 71.4085ZM58.9651 44.3335H64.9184L69.6684 50.6669H62.1318L58.9651 44.3335ZM63.3351 72.0735C62.0189 69.4469 59.9978 67.2382 57.4979 65.6947C54.9981 64.1512 52.1181 63.3336 49.1801 63.3335H43.1317L46.2984 57.0002H99.6251L108.08 69.6669H91.8351C90.8217 69.6669 91.3917 69.5085 78.4084 76.0002H65.2984L63.3351 72.0735ZM128.252 95.0002H44.3351C43.4952 95.0002 42.6898 95.3338 42.0959 95.9277C41.502 96.5216 41.1684 97.327 41.1684 98.1669C41.1684 99.0067 41.502 99.8122 42.0959 100.406C42.6898 101 43.4952 101.334 44.3351 101.334H123.502L118.752 107.667H32.9667C25.4934 100.194 23.4667 101.334 8.29841 101.334C12.0351 93.8602 9.85008 95.0002 22.1684 95.0002C24.7967 95.0002 24.8284 93.6069 30.4651 82.3335C83.7917 82.3335 79.6434 82.4919 80.5934 81.9852L92.5951 76.0002H142.502L128.252 95.0002Z" fill="#080F1E"/>
<path d="M69.4143 62.1304C69.2356 61.6971 68.9629 61.3089 68.6159 60.9938C68.2689 60.6787 67.8563 60.4445 67.4078 60.3082C66.9594 60.1719 66.4862 60.1369 66.0226 60.2056C65.5589 60.2744 65.1163 60.4452 64.7267 60.7057C64.3371 60.9663 64.0101 61.3101 63.7695 61.7123C63.5289 62.1145 63.3805 62.5651 63.3352 63.0317C63.2898 63.4982 63.3486 63.9689 63.5073 64.41C63.6659 64.851 63.9205 65.2513 64.2527 65.5821C64.7711 66.0983 65.4524 66.4191 66.1806 66.4899C66.9088 66.5607 67.6391 66.3771 68.2473 65.9704C68.8554 65.5637 69.304 64.9589 69.5168 64.2589C69.7296 63.5589 69.6933 62.8068 69.4143 62.1304Z" fill="white"/>
<path d="M80.3727 66.2469C80.8592 66.0522 81.2897 65.7399 81.6257 65.3378C81.9617 64.9358 82.1927 64.4567 82.298 63.9434C82.4033 63.4301 82.3796 62.8987 82.229 62.3969C82.0784 61.895 81.8056 61.4384 81.4351 61.0679C81.0646 60.6974 80.608 60.4246 80.1061 60.274C79.6043 60.1234 79.0729 60.0997 78.5596 60.205C78.0464 60.3103 77.5672 60.5413 77.1652 60.8773C76.7632 61.2133 76.4508 61.6438 76.2561 62.1303C76.0257 62.7058 75.9693 63.3362 76.0939 63.9434C76.2185 64.5506 76.5185 65.1079 76.9568 65.5462C77.3951 65.9845 77.9524 66.2846 78.5596 66.4091C79.1668 66.5337 79.7973 66.4773 80.3727 66.2469Z" fill="white"/>
<path d="M90.6294 66.2469C91.2581 66.5052 91.9531 66.5543 92.6119 66.3871C93.2706 66.2199 93.8581 65.8451 94.2874 65.3183C94.7168 64.7914 94.9652 64.1404 94.9961 63.4615C95.0269 62.7825 94.8385 62.1117 94.4587 61.5481C94.0789 60.9845 93.5278 60.558 92.8869 60.3318C92.2461 60.1055 91.5494 60.0914 90.8999 60.2916C90.2504 60.4918 89.6826 60.8957 89.2803 61.4435C88.878 61.9913 88.6627 62.654 88.6661 63.3336C88.6692 63.9588 88.8573 64.569 89.2067 65.0875C89.5561 65.6059 90.0511 66.0094 90.6294 66.2469Z" fill="white"/>
</g>
<defs>
<clipPath id="clip0_8_22">
<rect width="152" height="152" fill="white"/>
</clipPath>
</defs>
</svg>
